<svg width="66" height="72" xmlns="http://www.w3.org/2000/svg" xmlns:xlink="http://www.w3.org/1999/xlink"><defs><path id="path-1" d="M0 0h65.267v72H0z"/><path id="path-3" d="M0 72h65.267V0H0z"/></defs><g id="anchor-header" stroke="none" stroke-width="1" fill="none" fill-rule="evenodd"><g id="anchor-interior-1200" transform="translate(-40 -8)"><g id="Group-10"><g id="Group-9" transform="translate(40 8)"><g id="midd-shield"><path id="Fill-1" fill="#FFF" d="M1.217 1.012V35.06l1.25 5.744 6.945 12.523 7.36 7.337 9.034 6.874 6.536 3.541 5.715-2.43 6.599-4.584 5.948-4.93 4.292-3.75 2.974-4.651 3.652-6.214 1.498-3.631 1.805-7.2V1.013z"/><g id="Group-54" transform="translate(.25)"><g id="Group-4"><mask id="mask-2" fill="#fff"><use xlink:href="#path-1"/></mask><path d="M1.626 1.627V32.98c0 .053.076 5.68 3.958 13.058 3.563 6.77 11.146 16.432 27.067 24.156C48.584 62.469 56.16 52.806 59.71 46.039c3.87-7.379 3.93-13.004 3.93-13.059V1.627H1.626zm31.025 70.372l-.352-.167C15.682 63.86 7.79 53.767 4.094 46.7.062 38.989 0 33.224 0 32.983V.002h65.267v32.98c0 .242-.045 6.005-4.067 13.715-3.683 7.067-11.566 17.16-28.198 25.136l-.35.168z" id="Fill-2" fill="#0D395F" mask="url(#mask-2)"/></g><path d="M20.892 12.258a7.188 7.188 0 0 0-2.847-2.278c.435.629.802 1.4 1.084 2.278h1.763z" id="Fill-5" fill="#0D395F"/><path d="M15.764 9.519v2.739h2.085c-.526-1.433-1.291-2.405-2.085-2.74" id="Fill-7" fill="#0D395F"/><path d="M11.782 15.92h2.762v-2.443h-2.445a13.13 13.13 0 0 0-.317 2.444" id="Fill-9" fill="#0D395F"/><path d="M12.459 12.258h2.085v-2.74c-.795.334-1.56 1.306-2.085 2.74" id="Fill-11" fill="#0D395F"/><path d="M12.099 19.584h2.445V17.14h-2.762c.035.888.147 1.707.317 2.444" id="Fill-13" fill="#0D395F"/><path d="M14.544 23.543v-2.739h-2.085c.526 1.433 1.29 2.405 2.085 2.739" id="Fill-15" fill="#0D395F"/><path d="M10.563 17.14H8.02c.074.87.306 1.69.662 2.444h2.175a14.583 14.583 0 0 1-.294-2.444" id="Fill-17" fill="#0D395F"/><path d="M18.209 13.478h-2.445v2.443h2.762a13.214 13.214 0 0 0-.317-2.443" id="Fill-19" fill="#0D395F"/><path d="M10.856 13.478H8.681a7.075 7.075 0 0 0-.66 2.443h2.541c.033-.86.133-1.68.294-2.443" id="Fill-21" fill="#0D395F"/><path d="M9.416 20.804a7.193 7.193 0 0 0 2.845 2.276c-.433-.628-.8-1.4-1.082-2.276H9.415z" id="Fill-23" fill="#0D395F"/><path d="M19.745 15.92h2.542a7.081 7.081 0 0 0-.66-2.443H19.45c.16.764.261 1.583.294 2.444" id="Fill-25" fill="#0D395F"/><path d="M12.261 9.981a7.187 7.187 0 0 0-2.845 2.277h1.762c.283-.878.65-1.649 1.083-2.277" id="Fill-27" fill="#0D395F"/><path d="M19.45 19.584h2.176a7.098 7.098 0 0 0 .662-2.444h-2.543a14.48 14.48 0 0 1-.294 2.444" id="Fill-29" fill="#0D395F"/><path d="M57.62 20.237l-7.818 4.585-7.825-4.585v-8.853h1.22v8.154l6.605 3.87 6.598-3.87v-8.154h1.22v8.853zM44.428 10.61s3.254.052 4.715 2.743v8.176c-1.461-2.69-4.715-2.743-4.715-2.743s-.047-8.23 0-8.176zm5.927 2.813c1.477-2.69 4.765-2.743 4.765-2.743.049-.053 0 8.176 0 8.176s-3.288.053-4.765 2.744v-8.177zM39.712 26.029H25.556v-1.423H27.7v-6.997h9.867v6.997h2.145v1.423zm-24.557-1.113c-4.624 0-8.386-3.762-8.386-8.386 0-4.623 3.762-8.384 8.386-8.384 4.623 0 8.384 3.76 8.384 8.384 0 4.624-3.761 8.386-8.384 8.386zm18.19-21.301v.812c.62.266 1.059.858 1.059 1.555 0 .695-.438 1.287-1.058 1.552v.988c.932.34 2.614 1.156 3.383 2.812.72 1.552.852 2.895.859 3.63h.663v1.424H27.017v-1.423h.664c.006-.736.138-2.08.858-3.631.768-1.653 2.45-2.472 3.383-2.814v-.987c-.62-.265-1.057-.856-1.057-1.551 0-.697.438-1.288 1.057-1.554v-.813H3.996v28.498s.004 1.282.428 3.415c.049-.017.099-.032.148-.05 3.053-1.042 8.563-2.83 12.212-2.83 3.648 0 4.988.969 8.488.969.404 0 .793.009 1.175.022v-6.4H38.82v6.61c2.478-.075 4.325-.003 6.556.4 3.09.559 4.99 2.57 7.186 2.905 2.197.335 4.133-.148 6.478-.037l1.436.067c.794-3.11.796-5.071.796-5.071V3.615H33.346z" id="Fill-31" fill="#0D395F"/><path d="M18.526 17.14h-2.762v2.444h2.445a13.3 13.3 0 0 0 .317-2.444" id="Fill-33" fill="#0D395F"/><path d="M15.764 23.543c.794-.335 1.559-1.306 2.085-2.739h-2.085v2.739z" id="Fill-35" fill="#0D395F"/><path d="M18.045 23.081a7.19 7.19 0 0 0 2.846-2.277h-1.763c-.282.877-.648 1.65-1.083 2.277" id="Fill-37" fill="#0D395F"/><mask id="mask-4" fill="#fff"><use xlink:href="#path-3"/></mask><path id="Fill-39" fill="#0D395F" mask="url(#mask-4)" d="M31.315 33.066h2.638v-4.564h-2.638z"/><path d="M30.852 54.61c-.2-.16-.514-.32-1.037-.538-.393.21-.675.53-.675.997 0 .563.401.925 1.03.925.563 0 .948-.33.948-.804 0-.25-.087-.442-.265-.58" id="Fill-41" fill="#0D395F" mask="url(#mask-4)"/><path d="M30.177 53.325c.354-.178.772-.46.772-.901 0-.426-.313-.684-.852-.684-.515 0-.853.28-.853.7 0 .467.555.732.933.885" id="Fill-42" fill="#0D395F" mask="url(#mask-4)"/><path d="M34.641 51.764c-.314 0-.555.25-.708.676-.128.345-.185.803-.185 1.375 0 .54.04.957.113 1.254.145.628.434.893.772.893s.611-.29.756-.757c.104-.345.153-.803.153-1.342 0-.523-.04-.884-.12-1.23-.154-.628-.427-.869-.78-.869" id="Fill-43" fill="#0D395F" mask="url(#mask-4)"/><path d="M39.127 56.622c-1.415 0-1.866-1.648-1.866-2.8 0-1.583.805-2.724 1.875-2.724 1.44 0 1.89 1.584 1.89 2.75 0 1.664-.772 2.774-1.899 2.774zm-4.502 0c-1.416 0-1.866-1.648-1.866-2.8 0-1.583.804-2.724 1.873-2.724 1.44 0 1.89 1.584 1.89 2.75 0 1.664-.772 2.774-1.897 2.774zm-4.544.032c-.925 0-1.898-.458-1.898-1.52 0-.651.434-1.174 1.028-1.383-.489-.2-.859-.692-.859-1.231 0-1.02.95-1.422 1.825-1.422 1.013 0 1.713.538 1.713 1.326 0 .659-.515 1.029-1.07 1.238.78.322 1.271.708 1.271 1.375 0 1.038-1.086 1.617-2.01 1.617zm-2.679-.153h-2.549v-.715h.933v-3.571c-.08.049-.33.209-.547.313a7.28 7.28 0 0 1-.612.266l-.216-.475 1.616-1.134h.628v4.6h.747v.716zM40.87 44.518v.029H24.427l-11.915 7.465c4.244 5.19 10.6 10.603 20.126 15.166 9.55-4.572 15.91-9.994 20.15-15.193l-11.919-7.467z" id="Fill-44" fill="#0D395F" mask="url(#mask-4)"/><path d="M39.144 51.764c-.314 0-.555.25-.708.676-.128.345-.185.803-.185 1.375 0 .54.04.957.113 1.254.144.628.434.893.772.893s.611-.29.756-.757c.105-.345.152-.803.152-1.342 0-.523-.04-.884-.12-1.23-.153-.628-.426-.869-.78-.869" id="Fill-45" fill="#0D395F" mask="url(#mask-4)"/><path id="Fill-46" fill="#0D395F" mask="url(#mask-4)" d="M24.145 36.278h16.978v-1.22H24.145z"/><path d="M27.461 41.696h10.345v-2.472H27.461v2.472zm-1.22 1.22h12.785v-4.911H26.241v4.911z" id="Fill-47" fill="#0D395F" mask="url(#mask-4)"/><path id="Fill-48" fill="#0D395F" mask="url(#mask-4)" d="M31.315 23.058h2.638v-4.095h-2.638z"/><path id="Fill-49" fill="#0D395F" mask="url(#mask-4)" d="M29.082 23.056h.813v-4.087h-.813z"/><path id="Fill-50" fill="#0D395F" mask="url(#mask-4)" d="M35.373 23.056h.813v-4.087h-.813z"/><path d="M33.408 5.982c0 .404-.347.732-.774.732-.428 0-.775-.328-.775-.732 0-.406.347-.735.775-.735.427 0 .774.329.774.735" id="Fill-51" fill="#0D395F" mask="url(#mask-4)"/><path d="M24.398 40.126l-14.115 8.9c.301.438.616.88.946 1.326L24.4 42.05v-1.923z" id="Fill-52" fill="#0D395F" mask="url(#mask-4)"/><path d="M40.868 42.117l13.146 8.309c.33-.445.646-.887.947-1.326l-14.093-8.907v1.924z" id="Fill-53" fill="#0D395F" mask="url(#mask-4)"/></g></g></g></g></g></g></svg>